<svg xmlns="http://www.w3.org/2000/svg" xmlns:xlink="http://www.w3.org/1999/xlink" width="1816.098" height="1693.37" viewBox="0 0 1816.098 1693.37">
  <defs>
    <clipPath id="clip-path">
      <rect id="Rectangle_33" data-name="Rectangle 33" width="799.032" height="671.329" fill="none"/>
    </clipPath>
    <clipPath id="clip-path-2">
      <rect id="Rectangle_40" data-name="Rectangle 40" width="59.014" height="401.778" fill="none"/>
    </clipPath>
    <clipPath id="clip-path-3">
      <rect id="Rectangle_41" data-name="Rectangle 41" width="188.345" height="170.492" fill="none"/>
    </clipPath>
    <clipPath id="clip-path-4">
      <rect id="Rectangle_43" data-name="Rectangle 43" width="80.846" height="187.276" fill="none"/>
    </clipPath>
    <clipPath id="clip-path-5">
      <rect id="Rectangle_44" data-name="Rectangle 44" width="369.369" height="671.802" fill="none"/>
    </clipPath>
  </defs>
  <g id="Group_58" data-name="Group 58" transform="translate(-103.902 -1414.63)">
    <g id="Group_3" data-name="Group 3" transform="translate(1120.968 2436.671)">
      <g id="Group_2" data-name="Group 2" clip-path="url(#clip-path)">
        <path id="Path_1" data-name="Path 1" d="M313.231,407.315c-1.574,2.915-13.448,15.51-.333,28.849,13.036,13.258,26.518,1.171,29.132-.108,1.551-3.529,11.283-16.618-.865-28.155a19.9,19.9,0,0,0-13.187-5.788c-6.727-.252-10.637,2.656-14.747,5.2" fill="#dbc3b6" fill-rule="evenodd"/>
        <path id="Path_3" data-name="Path 3" d="M89.479,519.512c-2.336-11.957-6.432-21.138-16.195-28.8a44.08,44.08,0,0,0-34.145-9.387C15.912,484.7-2.728,504.3.329,531.7c1.327,11.893,7.994,22.207,15.828,28.759,14.173,11.853,33.869,14.1,51.681,4.287,14.467-7.971,25.231-26.856,21.641-45.232" fill="#eac0a9" fill-rule="evenodd"/>
        <path id="Path_4" data-name="Path 4" d="M499.653,594.56c1.906,10.544-5.861,21.641-17.56,23.506-12.444,1.982-23.8-7.2-24.78-17.533-1.22-12.945,6.086-23.094,17.929-24.515,14.23-1.707,22.287,6.792,24.411,18.542M313.231,407.315c4.11-2.546,8.02-5.454,14.747-5.2a19.9,19.9,0,0,1,13.187,5.788c12.148,11.537,2.416,24.626.865,28.155,3.1,1.9,50.9,50.345,54.775,54.268,9.5,9.632,17.328,17.274,27.336,27.369,8.441,8.512,21.378,19.268,12.474,36.6-5.888,11.459-23.219,18.549-36.563,8.556-6.637-4.971-14.644-15.486-29.186-25.526-51.592-35.618-114.241-43.972-173-20.574a174.537,174.537,0,0,0-35.4,19.184c-15.644,10.985-16.44,13.085-29.468,25.227L78.348,615.863c-7.383,7.492-52.306,51.263-54.768,55.466H711.7c-2.157-3.488-5.777-6.23-8.331-8.774L644.5,603.641c-21.956-22.418-45.7-44.9-67.288-67.3L459.468,418.566c-2.931-2.968-5.45-5.5-8.433-8.389-4.871-4.72-2.657-10.35,2.556-8.143,1.59.673,29.692,29.325,33.82,33.456,28.012,28.029,232.852,231.725,235.282,235.839H764.98c-1.741-3.614-6.942-7.392-10.162-10.461L703,611.054c-11.717-11.037-21.1-18-26.591-33.646-5.748-16.377-.451-34.1,10.171-46.557L696.7,520.68c1.859-2.574,2.937-2.894,5.05-5.536,8.135-10.172,13.486-21.356,13.2-36.586a54.271,54.271,0,0,0-10.061-30.668c-4.571-6.2-23.718-24.366-30.029-30.9-9.6-9.937-21.335-20.339-30.187-30.109-9.93-10.961-26.68-22.857-27.478-33.769-.464-6.333,1.446-11.988,4.382-15.562,6.523-7.943,19.344-9.883,28.755-1.939l20.128,19.835c7.194,7.7,15.054,17.717,25.375,10.758,4.041-2.724,6.57-8.319,4.561-14.625-1.371-4.3-5.783-7.684-9.281-11.147-6.575-6.509-13.322-12.878-20.333-20.344-6.6-7.032-14.319-13.423-19.927-20.065l-40.329-40.884c-11.624-13.52-9.527-43.892,12.248-54.3,9.887-4.728,22.15-6.842,32.185-1.383.139.076.307.192.44.268,3.069,1.735,4.514,1.5,7.01,3.486,5.543,4.413,10.456,10.117,15.343,14.8l80.615,80.636c7.364,7.281,12.948,12.966,20.289,20.354,4.047,4.073,17.616,18.3,20.377,19.689V155.859c-2.1-.838-6.821-6.634-9.509-9.145L760.442,117.6c-6.55-6.718-13.088-12.552-19.345-19.182-6.8-7.21-12.921-12.733-19.625-19.685L682.923,40.229C605.74-31.554,475.44-5.079,436.713,102.146c-15.334,42.455-8.956,87.571,12.2,125.77,13.956,25.205,52.544,59.042,73.892,81.074,12.074,12.46,25.458,25.333,38.545,38.536,25.048,25.272,54.533,53.385,77.783,77.85,6.249,6.575,12.3,12.225,19.31,19.24,5.729,5.738,13.166,13.533,19.623,19.635,19.55,18.477,3.619,44.183-18.372,40.729-8.853-1.391-15.956-10.269-22.118-16.382L385.229,236.248c-12.913-12.916-25.659-25.644-38.509-38.593-14.177-14.287-25.444-23.8-48.656-29.194-22.288-5.179-46.851.313-62.77,10.6-15.96,10.317-28.015,23.612-35.353,42.423-7.545,19.341-7.447,45.239,1.092,64.43,8.792,19.756,20.617,29.151,34.561,43.19,12.639,12.726,26.43,26.409,38.886,38.907,4.333,4.348,36.452,35.7,38.751,39.3" fill="#eadad0" fill-rule="evenodd"/>
        <path id="Path_5" data-name="Path 5" d="M764.98,671.329h34.052V342.693c-2.761-1.392-16.33-15.616-20.377-19.688-7.341-7.389-12.925-13.074-20.289-20.355l-80.615-80.636c-4.887-4.685-9.8-10.389-15.342-14.8-2.5-1.988-3.942-1.751-7.01-3.486-.134-.076-.3-.192-.441-.268-10.035-5.459-22.3-3.345-32.185,1.383-21.775,10.411-23.872,40.783-12.248,54.3l40.329,40.884c5.608,6.642,13.323,13.033,19.927,20.065,7.011,7.466,13.758,13.836,20.333,20.344,3.5,3.463,7.91,6.846,9.281,11.147,2.009,6.306-.52,11.9-4.561,14.625-10.321,6.959-18.181-3.061-25.375-10.758l-20.128-19.835c-9.411-7.944-22.231-6-28.755,1.939-2.935,3.574-4.846,9.229-4.382,15.562.8,10.912,17.548,22.808,27.479,33.769,8.851,9.77,20.582,20.172,30.187,30.109,6.31,6.529,25.457,24.691,30.028,30.9a54.271,54.271,0,0,1,10.061,30.668c.282,15.23-5.069,26.414-13.2,36.586-2.114,2.642-3.192,2.963-5.051,5.536l-10.119,10.171c-10.622,12.454-15.919,30.18-10.171,46.557,5.494,15.65,14.874,22.609,26.591,33.646l51.823,49.814c3.219,3.069,8.42,6.847,10.161,10.461" fill="#dbc3b6" fill-rule="evenodd"/>
        <path id="Path_6" data-name="Path 6" d="M499.653,594.56c-2.124-11.75-10.181-20.249-24.411-18.542-11.843,1.421-19.149,11.57-17.928,24.515.974,10.335,12.336,19.515,24.78,17.533,11.7-1.864,19.465-12.962,17.559-23.506" fill="#faf2ec" fill-rule="evenodd"/>
      </g>
    </g>
    <g id="Group_17" data-name="Group 17" transform="translate(103.902 2217)">
      <g id="Group_16" data-name="Group 16" clip-path="url(#clip-path-2)">
        <path id="Path_35" data-name="Path 35" d="M29.159,12.419C24.646,8.747,13.969-7.121,3.531,3.747c-10.9,11.354,6.736,21.1,8.807,25.635C9.7,33.122,5.288,35.9,2.481,39.858-4.934,50.311,8,63.821,18.688,56.072c4.1-2.97,6.384-7.211,10.471-9.93,4.9,2.646,14.781,19.738,25.666,8.9C65.5,44.417,50.157,34.207,46.086,29.382c2.671-4.953,19.959-14.695,8.736-25.662s-20.663,5.669-25.663,8.7" fill="#dbc3b6" fill-rule="evenodd"/>
        <path id="Path_36" data-name="Path 36" d="M16.037,100.157C11.824,89.6-3.3,96.342,1.068,106.5c3.978,9.254,19,3.775,14.969-6.341" fill="#dbc3b6" fill-rule="evenodd"/>
        <path id="Path_37" data-name="Path 37" d="M16.164,183.457c-3.516-9.582-18.51-5.2-15.416,5.363,2.943,10.056,19.385,5.452,15.416-5.363" fill="#dbc3b6" fill-rule="evenodd"/>
        <path id="Path_38" data-name="Path 38" d="M16.035,349.7c-3.869-10.348-19.407-4.338-14.93,6.337,3.66,8.726,18.9,4.294,14.93-6.337" fill="#dbc3b6" fill-rule="evenodd"/>
        <path id="Path_39" data-name="Path 39" d="M58.045,140.919c-4.755-10-18.611-3.461-14.952,6.275,3.54,9.421,20.025,4.392,14.952-6.275" fill="#dbc3b6" fill-rule="evenodd"/>
        <path id="Path_40" data-name="Path 40" d="M58.011,183.041c-5.244-10.2-18.431-3.075-14.962,6.26,3.689,9.923,20.156,3.836,14.962-6.26" fill="#dbc3b6" fill-rule="evenodd"/>
        <path id="Path_41" data-name="Path 41" d="M16.059,307.586c-3.607-9.821-18.925-4.842-15.168,5.866,3.235,9.223,19.168,5.026,15.168-5.866" fill="#dbc3b6" fill-rule="evenodd"/>
        <path id="Path_42" data-name="Path 42" d="M58.134,266.181c-3.821-9.75-18.947-4.046-14.956,6.418,3.448,9.039,19.258,4.561,14.956-6.418" fill="#dbc3b6" fill-rule="evenodd"/>
        <path id="Path_43" data-name="Path 43" d="M16.159,390.884C12.9,381.221-2.556,385.741.805,396.276c3.141,9.842,19.035,5.521,15.354-5.392" fill="#dbc3b6" fill-rule="evenodd"/>
        <path id="Path_44" data-name="Path 44" d="M58.116,224.192c-4.321-10.134-18.969-3.33-14.938,6.342,3.885,9.321,19.472,4.29,14.938-6.342" fill="#dbc3b6" fill-rule="evenodd"/>
        <path id="Path_45" data-name="Path 45" d="M58.062,390.449c-4.562-10-18.667-3.441-14.927,6.281,3.6,9.349,19.831,4.468,14.927-6.281" fill="#dbc3b6" fill-rule="evenodd"/>
        <path id="Path_46" data-name="Path 46" d="M16.1,141.432C12.664,131.756-2.472,136.221.8,146.727c3.127,10.024,19.134,5.526,15.293-5.295" fill="#dbc3b6" fill-rule="evenodd"/>
        <path id="Path_47" data-name="Path 47" d="M15.926,224.441C11.113,213.779-2.908,220.951,1,230.654c3.862,9.581,19.368,3.633,14.923-6.213" fill="#dbc3b6" fill-rule="evenodd"/>
        <path id="Path_48" data-name="Path 48" d="M57.91,307.171c-2.217-4.579-6.084-6.072-10.839-4.056a8.216,8.216,0,0,0-3.8,10.71c4.2,9.517,19.544,3.472,14.641-6.654" fill="#dbc3b6" fill-rule="evenodd"/>
        <path id="Path_49" data-name="Path 49" d="M57.952,349.246c-4.723-10-18.819-3.155-14.654,6.672,4.039,9.527,19.467,3.518,14.654-6.672" fill="#dbc3b6" fill-rule="evenodd"/>
        <path id="Path_50" data-name="Path 50" d="M57.9,99.743c-1.017-2.081-1.358-3.195-3.858-4.166a9.041,9.041,0,0,0-7.366.371,8.247,8.247,0,0,0-3.216,10.945c4.1,8.651,19.421,3.039,14.44-7.15" fill="#dbc3b6" fill-rule="evenodd"/>
        <path id="Path_51" data-name="Path 51" d="M16.247,266.734c-3.272-10.068-19.084-5.232-15.4,5.414,3.145,9.079,18.858,5.232,15.4-5.414" fill="#dbc3b6" fill-rule="evenodd"/>
      </g>
    </g>
    <g id="Group_19" data-name="Group 19" transform="translate(1640.342 2189)">
      <g id="Group_18" data-name="Group 18" clip-path="url(#clip-path-3)">
        <path id="Path_52" data-name="Path 52" d="M58.078,160.123c-1.4-3.882-4.078-7.209-10.1-5.535-3.907,1.085-6.838,5.285-5.18,10.627,3,9.649,18.888,4.944,15.279-5.092" fill="#eac0a9" fill-rule="evenodd"/>
        <path id="Path_53" data-name="Path 53" d="M15.784,159.488c-3.683-9.718-18.668-4.8-15.292,5.48,3.177,9.671,19.442,5.471,15.292-5.48" fill="#eac0a9" fill-rule="evenodd"/>
        <path id="Path_54" data-name="Path 54" d="M15.474,117.866c-5.334-10.075-18.747-2.58-14.7,6.781,4.138,9.56,19.908,3.061,14.7-6.781" fill="#eac0a9" fill-rule="evenodd"/>
        <path id="Path_55" data-name="Path 55" d="M58,118.873c-1.424-3.634-4.211-7.114-10.254-5.317-3.973,1.182-6.681,6.048-4.819,10.9,3.441,8.965,19.013,4.479,15.073-5.582" fill="#eac0a9" fill-rule="evenodd"/>
        <path id="Path_56" data-name="Path 56" d="M187.29,15.383c-8.418-27.911-49.14-14.091-41.169,11.65,8.647,27.924,49.234,15.091,41.169-11.65" fill="#eac0a9" fill-rule="evenodd"/>
      </g>
    </g>
    <g id="Group_23" data-name="Group 23" transform="translate(1462.251 2410)">
      <g id="Group_22" data-name="Group 22" clip-path="url(#clip-path-4)">
        <path id="Path_59" data-name="Path 59" d="M39.219,156.977c-3.362-2.253-9.86-12.369-16.555-5.7-6.586,6.556,2.305,13.3,5.4,16.519-1.439,3.388-12.8,10.2-5.361,17.229,7.049,6.667,12.954-3.357,16.519-5.694,3.048,1.8,9.895,12.7,16.9,5.366,6.991-7.314-3.929-12.7-5.6-16.9,2.715-2.74,12.029-9.376,5.6-16.192-6.951-7.367-13.907,3.507-16.9,5.375" fill="#dbc3b6" fill-rule="evenodd"/>
        <path id="Path_60" data-name="Path 60" d="M80.354,35.634C76.47,12.161,59.376-2.156,34.965.266,14.782,2.268-2.6,23.129.322,45.556c2.811,21.55,21.442,37.028,45.184,35C65.14,78.872,84.169,58.69,80.354,35.634" fill="#dbc3b6" fill-rule="evenodd"/>
      </g>
    </g>
    <g id="Group_25" data-name="Group 25" transform="translate(1550.631 1414.63)">
      <g id="Group_24" data-name="Group 24" clip-path="url(#clip-path-5)">
        <path id="Path_61" data-name="Path 61" d="M46.456,352.278c-4,8-13.206,14.8-12.848,34.629.265,14.624,7.1,27.156,14.326,34.024,13.473,12.812,33.86,18.456,53.262,10.47a40.861,40.861,0,0,0,7.856-4.1c2.659-1.764,4.85-3.932,7.007-5.376,3.418-4.851,5.53-4.349,10.67-14.813,9.4-19.138,4.013-42.846-9.809-55.882-17.529-16.53-43.613-19.236-63.767-4.357-2.385,1.761-4.017,3.917-6.7,5.4" fill="#eadad0" fill-rule="evenodd"/>
        <path id="Path_62" data-name="Path 62" d="M369.369,453.107V442.265c-2.637-1.66-21.281-20.826-25.1-24.675C289.33,362.262,233.205,307.233,178.512,251.814c-2.008-2.035-3.8-5.216-7.66-3.238-5.047,3.341,2.149,8.506,7.959,14.142Z" fill="#dbc3b6" fill-rule="evenodd"/>
        <path id="Path_64" data-name="Path 64" d="M46.456,352.278c2.68-1.487,4.312-3.643,6.7-5.4,20.154-14.879,46.238-12.173,63.767,4.357,13.822,13.036,19.211,36.744,9.809,55.882-5.14,10.464-7.252,9.962-10.67,14.813,3.855-.336,12.255,9.674,16.863,14.239L289.906,593.238c2.792,2.731,4.774,4.49,7.759,7.64l39.567,39.638c4.917,4.748,29.338,30.156,32.137,31.286V585.418l-76.8-76.2c-6.278-6.079-12.948-13.088-18.849-18.978l-48.017-48.011c-2.626-2.538-8.36-6.382-7.276-11.5,4.738-3.639,7.36.493,10.673,3.9L369.369,574.6V453.107L178.811,262.718c-5.811-5.635-13.006-10.8-7.96-14.142,3.864-1.978,5.653,1.2,7.661,3.238C233.205,307.233,289.33,362.262,344.266,417.59c3.822,3.849,22.465,23.015,25.1,24.675V23.119C367.3,18.258,367.762,6.341,367.109,0c-3.241.765-53.036,52.08-58.256,57.205C285.634,80,272.291,98.363,266.407,131.926c-4.267,24.339.409,47.025,8.373,66.318,16.323,39.545,66.771,69.829,69.221,85.6,1.826,11.76-4.632,20.645-14.055,24.346-12.668,4.975-21.089-3.91-27.425-10.053-38.308-37.147-78.38-79.6-116.354-116.39-31.752-30.765-73.506-40.694-116.081-25.4-18.361,6.6-34.377,19.419-45,32.028-34.9,41.427-32.649,102.286,2.129,141.8,3.645,4.142,16.324,17.453,19.7,19.626.128,2.556.51.08-.458,2.469" fill="#eadad0" fill-rule="evenodd"/>
      </g>
    </g>
  </g>
</svg>
