<svg id="Group_58" data-name="Group 58" xmlns="http://www.w3.org/2000/svg" xmlns:xlink="http://www.w3.org/1999/xlink" width="1920" height="1977.56" viewBox="0 0 1920 1977.56">
  <defs>
    <clipPath id="clip-path">
      <rect id="Rectangle_38" data-name="Rectangle 38" width="204.228" height="199.152" fill="none"/>
    </clipPath>
    <clipPath id="clip-path-2">
      <rect id="Rectangle_42" data-name="Rectangle 42" width="138.586" height="138.636" fill="none"/>
    </clipPath>
    <clipPath id="clip-path-3">
      <rect id="Rectangle_34" data-name="Rectangle 34" width="720.638" height="1414.63" fill="none"/>
    </clipPath>
    <clipPath id="clip-path-4">
      <rect id="Rectangle_35" data-name="Rectangle 35" width="89.197" height="55.08" fill="none"/>
    </clipPath>
    <clipPath id="clip-path-5">
      <rect id="Rectangle_36" data-name="Rectangle 36" width="159.348" height="142.965" fill="none"/>
    </clipPath>
    <clipPath id="clip-path-6">
      <rect id="Rectangle_37" data-name="Rectangle 37" width="166.743" height="332.742" fill="none"/>
    </clipPath>
    <clipPath id="clip-path-7">
      <rect id="Rectangle_39" data-name="Rectangle 39" width="103.902" height="208.56" fill="none"/>
    </clipPath>
  </defs>
  <g id="Group_13" data-name="Group 13" transform="translate(1632.401 645.848)">
    <g id="Group_12" data-name="Group 12" clip-path="url(#clip-path)">
      <path id="Path_31" data-name="Path 31" d="M55.706,49.95a8.807,8.807,0,0,1-2.371-2.107L48.1,42.568c-2.6-2.585-5.389-4.742-7.336-7.661L12.733,7.137c-2.518-2.542-6.812-9-11.3-6.62-5.893,3.759,7.907,14.3,14.142,20.607,3.424,3.463,6.38,6.35,9.807,9.824,2.684,2.722,7.761,7.215,9.555,9.782L49.874,55.8c2.94,1.734,11.749,11.442,15.117,14.743C70.729,76.172,77.52,85.7,81.617,81.386c3.3-3.472-2.064-7.465-3.691-9.066Z" fill="#dbc3b6" fill-rule="evenodd"/>
      <path id="Path_33" data-name="Path 33" d="M40.768,34.907c1.946,2.918,4.736,5.076,7.336,7.661l5.231,5.275a8.825,8.825,0,0,0,2.372,2.107c.306-3.635,6.422-7.434,9.2-9.172C78.286,32.4,89.2,27.013,107.476,26.87c66.642-.523,103.092,78.045,57.675,128.233-41.726,46.109-122.392,26.45-132.736-42.645C28.883,88.867,43.969,56.747,49.874,55.8L34.937,40.73c.041,2.749-5.318,8.554-8.592,14.107C16.715,71.171,11.252,91.35,13.262,111.9c8.01,81.885,107.488,117.477,165.366,56.714,35.129-36.878,34.259-97.355-3.569-133.856C140.432,1.344,85.413-1.618,47.64,29.905c-2.426,2.024-3.883,4.342-6.872,5" fill="#eadad0" fill-rule="evenodd"/>
    </g>
  </g>
  <g id="Group_21" data-name="Group 21" transform="translate(221.414 788.365)">
    <g id="Group_20" data-name="Group 20" transform="translate(0 0)" clip-path="url(#clip-path-2)">
      <path id="Path_57" data-name="Path 57" d="M111.791,70.362c-2.319-5.739-3.357-12.612-14.524-19.224C69.994,34.994,38.571,60.9,47.346,89.21c9.056,29.218,48.077,31.777,61.1,7.813,1.889-3.476,4.151-8.083,4.56-11.31.7-5.553.449-11.24-1.214-15.352" transform="translate(25.212 25.386)" fill="#dbc3b6" fill-rule="evenodd"/>
      <path id="Path_58" data-name="Path 58" d="M66.274,27.672C55.62-18.286-7.6-2.068.758,40.317c3.363,17.065,18.5,29.771,40.055,26.048,14.746-2.547,29.8-19.988,25.461-38.693" transform="translate(0 0.001)" fill="#dbc3b6" fill-rule="evenodd"/>
    </g>
  </g>
  <g id="Group_44" data-name="Group 44">
    <g id="Group_5" data-name="Group 5">
      <g id="Group_4" data-name="Group 4" clip-path="url(#clip-path-3)">
        <path id="Path_7" data-name="Path 7" d="M160.795,961.155c-3.965-1.853-7.548-6.786-10.758-9.962L9.849,810.993C6.719,807.9,3.211,803.879,0,801.4v11.019c2.91,1.867,7.257,6.866,10.014,9.615L80.12,892.121c13.428,13.539,26.439,26.5,39.943,39.964,6.839,6.817,13.173,13.122,19.985,19.973,3.433,3.452,6.35,6.387,9.806,9.82,2.268,2.253,8.617,7.962,10.041,10.729,2.227.749,8.776,8.134,10.624,9.969,50.908,50.552,104.049,103.179,154.212,154.21,1.947,1.979,3.2,4.452,7.528,3.57,4.908-4.86-2.457-9.438-5.2-12.206L162.976,964.162a11.192,11.192,0,0,1-1.335-1.425c-1.129-1.532-.516-.495-.846-1.582" fill="#dbc3b6" fill-rule="evenodd"/>
        <path id="Path_8" data-name="Path 8" d="M0,.612V11.433c5.4,4.723,11.124,11.01,16.4,16.331,5.526,5.578,10.6,10.583,16.125,16.123l80.967,80.955c4.3,4.3,14.1,16.287,18.16,13.712,5.915-3.749-7.082-13.74-12.212-18.933L34.25,34.425C29.259,29.489,3.061,2.52,0,.612" fill="#dbc3b6" fill-rule="evenodd"/>
        <path id="Path_9" data-name="Path 9" d="M229.268,582.126c-1.952,4.63-5.121,8.05-4.587,15.128a18.9,18.9,0,0,0,5.9,12.621c8.741,8.408,17.43,6.985,27.25,1.148,3.15-4.217,6.55-6.295,6.81-14.478a19.86,19.86,0,0,0-21.381-20.826c-8.4.521-10.012,4.948-14,6.407" fill="#dbc3b6" fill-rule="evenodd"/>
        <path id="Path_10" data-name="Path 10" d="M147.009,1029.512c-3.742-2.1-6.4-5.93-9.523-9.006l-23.295-22.979c-2.754-1.348-5.3.017-5.831,2.385-.776,3.484,13.066,15.641,16.868,19.537l18.565,18.9,31.577,31.2c2.9,2.954,6.9,9.622,12.244,5.584,2.571-3.921-6.158-10.576-8.437-12.891-5.514-5.6-31.024-30.39-32.168-32.725" fill="#dbc3b6" fill-rule="evenodd"/>
        <path id="Path_15" data-name="Path 15" d="M0,98.625V375.846l13.808-12.971c10.873-10.31,17.567-23.794,31.715-10.971a31.129,31.129,0,0,0,18.255,7.737c14.646.9,28.386-8.161,32.041-20.419,2.207-7.4,2.281-15.865-.6-22.962-2.734-6.741-7.029-10.157-11.546-14.424-2.255-2.128-3.827-4.217-6.515-6.754-7.277-6.869-15.73-14.518-7.488-25.582,4.2-5.639,12.686-6.908,18.768-2.553,3.488,2.5,35.377,34.886,39.474,39.036,8.594,8.7,17.707,18.142,36.429,11.894,11.861-3.958,20.669-18.745,16.931-33.758-2.064-8.293-5.3-10.622-10.56-16.021L61.918,160.275C54.774,153.5,2.888,100.125,0,98.625" fill="#dbc3b6" fill-rule="evenodd"/>
        <path id="Path_16" data-name="Path 16" d="M111.222,1096.049c-1.9-1.384-2.875-2.915-4.832-4.43-5.527-4.28-22.6-14.452-29.352-17.622-15.554-7.3-24.99-10.383-42.662-14.225A163.723,163.723,0,0,0,0,1056.416v35.5c31.741,0,54.505,8.657,79.152,24.025,1.758,1.1,8.257,5.212,9.129,6.762,9.565,6.518,20.231,18.93,27.606,28.747,7.455,9.925,15.485,24.647,19.412,37.456,10.2,33.271,11.088,63.433-1.268,96.755C115.689,1335.123,66.247,1379.053,0,1379.053v35.577c82.023,0,143.262-53.766,166.941-115.738,24.853-65.047,9.424-135.4-36.973-186.037-2.322-2.534-15.478-16.19-18.746-16.806" fill="#dbc3b6" fill-rule="evenodd"/>
        <path id="Path_17" data-name="Path 17" d="M269.872,137.124c28.583-4.1,55.5,18.4,58.6,45.9,3.431,30.482-19,55.178-46.124,58.426-10.7,1.28-14.732-.8-22.485-2.7-7.263-1.776-12.474-5.139-17.4-9.448C232.876,220.91,225.552,208.591,224,195.5c-2.017-17.063,4.631-30.307,12.246-39.873,7.15-8.981,19.472-16.469,33.622-18.5M512.211,0H346.056c1.822,3.333,20.191,20.131,25.08,25.564,3.353,3.727,8.809,9.064,12.6,12.687,16.7,15.963,34.367,35.044,50.41,50.524,4.76,4.593,12.718,10.328,8.62,14.267-4.192,2.506-6.264-1.274-8.406-3.276-14.91-13.941-31.607-31.708-46.748-46.451L335.041,0H252.3c1.345,2.566,15.6,16.291,18.606,19.286L308.75,57.143c11.9,11.966,25.7,24.949,37.536,37.456,5.866,6.2,12.726,12.561,18.583,18.569l75.094,74.965c11.34,11.351,26.209,27.193,37.323,37.607,18.4,17.239,39.24,40.542,56.447,56.439,2.7,2.493,13.277,11.417,13.105,15.012-.136,2.849-2.34,4.289-5.221,3.14-2.271-.9-67.088-67.045-75.2-74.887-25.294-24.447-49.52-49.607-75-75.005C379.848,138.91,243.154,3.119,241.686,0H0V.612C3.06,2.52,29.259,29.489,34.25,34.425l85.185,85.2c5.13,5.194,18.127,15.184,12.211,18.934-4.062,2.574-13.863-9.416-18.159-13.713L32.519,43.887C26.991,38.348,21.92,33.342,16.4,27.764,11.123,22.443,5.4,16.156,0,11.433V98.625c2.887,1.5,54.774,54.878,61.918,61.65L170.713,268.1c5.259,5.4,8.5,7.729,10.56,16.022,3.737,15.013-5.07,29.8-16.931,33.758-18.723,6.248-27.835-3.191-36.429-11.894-4.1-4.15-35.986-36.537-39.475-39.036-6.081-4.355-14.566-3.086-18.768,2.553-8.242,11.064.211,18.713,7.489,25.582,2.688,2.537,4.259,4.626,6.514,6.754,4.518,4.267,8.812,7.683,11.547,14.423,2.879,7.1,2.806,15.562.6,22.963-3.656,12.258-17.395,21.319-32.041,20.418A31.12,31.12,0,0,1,45.523,351.9c-14.148-12.823-20.842.661-31.716,10.971L0,375.846V514.384c2.8,1.208,10.846,10.109,13.78,12.99,4.991,4.9,9.318,9.148,13.7,13.631l68.3,68.4c2.127,2.108,4.22,4.045,6.656,6.643,2.208,2.355,6.234,4.116,4.11,8.495-3.743,4.786-10.264-3.8-14.745-8.369C81.311,605.49,2.558,526.243,0,524.971V801.4c3.211,2.476,6.719,6.5,9.849,9.59l140.187,140.2c3.21,3.176,6.793,8.109,10.759,9.962,4.877-74.135-20.368-133.473-55.73-177.348-5.868-7.281-23.655-25.563-24.219-26.371a30.11,30.11,0,0,1-2.559-5.1c-6.822-15.681,10.613-32.185,26.181-26.165,8.131,3.144,23.646,21.579,30.7,28.146l29.525,29.4c18.591,19.034,45.8,35.553,85.286,29.709,47.124-6.973,79.9-49.685,78.715-96.356-.457-17.941-5.949-32.22-13.5-45.243-8.121-14.009-38.474-42.449-53.1-56.963-1.967-1.951-2.21-2.713-4.257-3.839-9.819,5.837-18.509,7.259-27.25-1.149a18.9,18.9,0,0,1-5.9-12.621c-.534-7.078,2.635-10.5,4.587-15.128-8.375-9.369-25.184-24.86-34.545-34.525-5.7-5.881-11.48-11.461-17.461-17.585-5.456-5.587-11.818-12.022-17.511-17.533l-52.6-52.553c-2.836-2.824-5.267-5.282-8.765-8.722a67.676,67.676,0,0,1-8.36-9.229c-11.718-16.933,6.185-41.76,27.493-34.464,8.923,3.055,13.007,10.415,19.147,15.862l17.58,17.455c12.738,13.395,58.848,60.053,71.195,69.088,21.9,16.023,54.608,24.53,83.18,18.216,26.87-5.938,48.583-17.477,65.677-39.624,16.747-21.7,26.423-51.368,22.233-80.953-9.382-66.233-57.286-71.659-65.846-109.526-9.967-44.093,35.348-75.774,69.753-61.3,15.926,6.7,26.107,19.194,38.361,31.715,11.347,11.594,23.73,23.47,35.112,35.023l35,35.09c38.521,40.8,97.589,55.987,152.236,24.746,15.024-8.589,32.387-24.515,40.127-38.588,3.5-6.37,4.323-5.864,9.459-17.057,12.578-27.413,12.607-61.471,3.3-88.709-11.684-34.2-38.01-53.623-61.813-78.373-21.249-22.094-48.082-48.1-70.2-70.033L512.535.435c-.071-.093-.215-.291-.324-.435" fill="#eadad0" fill-rule="evenodd"/>
        <path id="Path_18" data-name="Path 18" d="M0,812.422v243.994a163.663,163.663,0,0,1,34.376,3.357c17.671,3.841,27.108,6.926,42.662,14.225,6.754,3.169,23.825,13.341,29.352,17.621,1.956,1.515,2.934,3.046,4.832,4.43.409-3.6,5.034-8.849,8.618-14.525,9.117-14.44,12.9-20.468,19.956-36.155,1.157-2.571,1.763-5.874,4-7.024l-18.565-18.9c-3.8-3.9-17.644-16.052-16.868-19.537.528-2.367,3.077-3.733,5.831-2.385l23.295,22.979c3.126,3.077,5.781,6.9,9.523,9.006-.562-3,2.851-9.967,3.808-12.923,1.35-4.171,2.449-10.1,3.483-14.231l5.6-29.751c-1.424-2.766-7.773-8.476-10.041-10.729-3.456-3.432-6.373-6.367-9.806-9.82-6.812-6.85-13.146-13.155-19.985-19.972-13.5-13.461-26.515-26.425-39.943-39.964L10.014,822.036c-2.757-2.748-7.1-7.748-10.014-9.614" fill="#dbc3b6" fill-rule="evenodd"/>
        <path id="Path_19" data-name="Path 19" d="M0,1091.914v116.171c2.937-1.417,24.791-23.989,30.285-29.58,1.013-1.032.417-.432,1.444-1.424.61-.588.482-.438,1.078-1.027l31.824-31.93c4.611-4.828,18.509-17.663,21.186-21.689l2.464.266c-.872-1.55-7.372-5.667-9.129-6.762C54.505,1100.57,31.74,1091.914,0,1091.914" fill="#dbc3b6" fill-rule="evenodd"/>
      </g>
    </g>
    <g id="Group_7" data-name="Group 7" transform="translate(700.401)">
      <g id="Group_6" data-name="Group 6" clip-path="url(#clip-path-4)">
        <path id="Path_20" data-name="Path 20" d="M.294,0C-.692,18.5.407,27.3,9.846,38.549c19.395,23.113,52.608,20.528,68.594,1.3C88.291,28,89.8,19.713,89.019,0Z" fill="#eadad0" fill-rule="evenodd"/>
      </g>
    </g>
    <g id="Group_9" data-name="Group 9" transform="translate(1645 120)">
      <g id="Group_8" data-name="Group 8" clip-path="url(#clip-path-5)">
        <path id="Path_21" data-name="Path 21" d="M159,111.731c-5.661-36.184-59.5-27.073-53.614,8.6,2.18,13.218,14.862,24.853,31,22.267,13.624-2.184,25.109-14.9,22.611-30.871" fill="#eadad0" fill-rule="evenodd"/>
        <path id="Path_22" data-name="Path 22" d="M58.013,88.57c-3.555-9.482-18.932-5.382-15.174,5.81,3.239,9.649,19.151,4.8,15.174-5.81" fill="#eadad0" fill-rule="evenodd"/>
        <path id="Path_23" data-name="Path 23" d="M15.908,88.723C12.282,78.71-2.75,83.6.489,94.123c2.987,9.708,19.26,5.208,15.419-5.4" fill="#eadad0" fill-rule="evenodd"/>
        <path id="Path_24" data-name="Path 24" d="M58,46.476c-3.613-9.715-18.765-4.782-15.323,5.5,3.376,10.082,19.293,5.179,15.323-5.5" fill="#eadad0" fill-rule="evenodd"/>
        <path id="Path_25" data-name="Path 25" d="M57.885,129.44c-4.119-9.805-19.123-4-14.949,6.386,3.864,9.613,19.225,3.794,14.949-6.386" fill="#eadad0" fill-rule="evenodd"/>
        <path id="Path_26" data-name="Path 26" d="M57.644,4.966C52.907-4.941,39.015,1.388,42.968,11.58c3.635,9.371,19.65,3.785,14.676-6.614" fill="#eadad0" fill-rule="evenodd"/>
        <path id="Path_27" data-name="Path 27" d="M15.579,46.352C10.6,35.686-3.113,43.083.643,52.61c3.674,9.314,19.661,3.868,14.936-6.258" fill="#eadad0" fill-rule="evenodd"/>
        <path id="Path_28" data-name="Path 28" d="M15.532,5.133c-1.051-2.322.791.043-1.4-2.494C12.032.22,8.1-.453,5.038.668A8.036,8.036,0,0,0,.621,11.245C4.184,20.857,20.274,15.6,15.532,5.133" fill="#eadad0" fill-rule="evenodd"/>
        <path id="Path_29" data-name="Path 29" d="M15.684,129.672c-4.6-10.878-19.156-3.395-14.92,6.245,4.048,9.214,19.121,3.7,14.92-6.245" fill="#eadad0" fill-rule="evenodd"/>
      </g>
    </g>
    <g id="Group_11" data-name="Group 11" transform="translate(1753.257 845)">
      <g id="Group_10" data-name="Group 10" clip-path="url(#clip-path-6)">
        <path id="Path_30" data-name="Path 30" d="M166.743,332.742V0C122.195.431,79.668,17.291,49.012,48.364,17.827,79.972.194,119.6,0,166.094c-.091,22.14,4.971,49.668,14.588,68.782,12.836,25.509,15.814,28.9,34.158,49.2,9.489,10.5,36.815,29.733,49.246,34.091,14.048,4.924,11.589,5.775,31.08,10.423a165.459,165.459,0,0,0,37.67,4.151" fill="#dbc3b6" fill-rule="evenodd"/>
      </g>
    </g>
    <g id="Group_15" data-name="Group 15" transform="translate(0 1769)">
      <g id="Group_14" data-name="Group 14" clip-path="url(#clip-path-7)">
        <path id="Path_34" data-name="Path 34" d="M0,0V208.56A103.826,103.826,0,0,0,103.9,103.777c-.111-30.287-13.389-57.025-30.511-73.39-.557-.533-1.042-1.036-1.783-1.753l-5.2-4.6c-2.336-2.018-4.36-3.407-7.169-5.437C42.635,6.6,22.342.236,0,0" fill="#eac0a9" fill-rule="evenodd"/>
      </g>
    </g>
  </g>
</svg>
